<svg xmlns="http://www.w3.org/2000/svg" width="30" height="20">
	<path fill-rule="evenodd" fill="#9C9C9C" d="M14.999 19.657C6.756 19.657.74 16.95.74 13.61c0-1.49.666-2.855 2.874-3.909.545 1.122 1.672 2.125 3.302 2.914 2.974 1.052 5.044 1.631 8.083 1.631 3.391 0 5.91-.579 8.821-1.631.893-.789 2.02-1.792 2.565-2.914 2.207 1.054 3.539 2.419 3.539 3.909 0 3.34-6.682 6.047-14.925 6.047zm0-7.124c-8.158 0-9.791-3.063-9.778-3.103 1.182-15.012 8.359-6.779 9.778-6.779 1.42 0 8.596-8.233 9.779 6.779.012.04-1.62 3.103-9.779 3.103z" />
</svg>